<svg width="1440" height="420" viewBox="0 0 1440 420" fill="none" xmlns="http://www.w3.org/2000/svg">
  <defs>
    <linearGradient id="bg" x1="0" y1="0" x2="1440" y2="420" gradientUnits="userSpaceOnUse">
      <stop stop-color="#020617"/>
      <stop offset="1" stop-color="#0F172A"/>
    </linearGradient>
    <linearGradient id="card" x1="0" y1="0" x2="1" y2="1">
      <stop stop-color="#111827"/>
      <stop offset="1" stop-color="#020617"/>
    </linearGradient>
    <linearGradient id="accent" x1="0" y1="0" x2="1" y2="1">
      <stop stop-color="#22C55E"/>
      <stop offset="0.55" stop-color="#0EA5E9"/>
      <stop offset="1" stop-color="#8B5CF6"/>
    </linearGradient>
    <filter id="shadow"><feDropShadow dx="0" dy="18" stdDeviation="18" flood-color="#000" flood-opacity="0.35"/></filter>
  </defs>
  <rect width="1440" height="420" rx="32" fill="url(#bg)"/>
  <circle cx="240" cy="340" r="180" fill="#7C3AED" opacity="0.15"/>
  <circle cx="1180" cy="86" r="220" fill="#22C55E" opacity="0.12"/>
  <text x="720" y="72" text-anchor="middle" fill="#F8FAFC" font-family="Inter, ui-sans-serif, system-ui" font-size="34" font-weight="900">From profile to artifact in one repeatable flow</text>
  <text x="720" y="105" text-anchor="middle" fill="#94A3B8" font-family="Inter, ui-sans-serif, system-ui" font-size="15">Orbit keeps browser state, task execution, and run evidence connected locally.</text>

  <g filter="url(#shadow)" font-family="Inter, ui-sans-serif, system-ui">
    <g transform="translate(110 160)">
      <rect width="220" height="150" rx="26" fill="url(#card)" stroke="#1E293B"/>
      <rect x="24" y="24" width="48" height="48" rx="16" fill="url(#accent)"/>
      <text x="24" y="96" fill="#F8FAFC" font-size="19" font-weight="850">Environment</text>
      <text x="24" y="123" fill="#94A3B8" font-size="13">Profile, proxy, locale, timezone</text>
    </g>
    <path d="M352 235H444" stroke="#334155" stroke-width="3" stroke-linecap="round"/>
    <path d="M430 222l16 13-16 13" stroke="#334155" stroke-width="3" stroke-linecap="round" stroke-linejoin="round"/>

    <g transform="translate(464 160)">
      <rect width="220" height="150" rx="26" fill="url(#card)" stroke="#1E293B"/>
      <rect x="24" y="24" width="48" height="48" rx="16" fill="#0C4A6E"/>
      <text x="24" y="96" fill="#F8FAFC" font-size="19" font-weight="850">CDP Session</text>
      <text x="24" y="123" fill="#94A3B8" font-size="13">Start, recover, navigate, inspect</text>
    </g>
    <path d="M706 235H798" stroke="#334155" stroke-width="3" stroke-linecap="round"/>
    <path d="M784 222l16 13-16 13" stroke="#334155" stroke-width="3" stroke-linecap="round" stroke-linejoin="round"/>

    <g transform="translate(818 160)">
      <rect width="220" height="150" rx="26" fill="url(#card)" stroke="#1E293B"/>
      <rect x="24" y="24" width="48" height="48" rx="16" fill="#14532D"/>
      <text x="24" y="96" fill="#F8FAFC" font-size="19" font-weight="850">Task Runtime</text>
      <text x="24" y="123" fill="#94A3B8" font-size="13">Controlled JS APIs and queue</text>
    </g>
    <path d="M1060 235H1152" stroke="#334155" stroke-width="3" stroke-linecap="round"/>
    <path d="M1138 222l16 13-16 13" stroke="#334155" stroke-width="3" stroke-linecap="round" stroke-linejoin="round"/>

    <g transform="translate(1172 160)">
      <rect width="220" height="150" rx="26" fill="url(#card)" stroke="#1E293B"/>
      <rect x="24" y="24" width="48" height="48" rx="16" fill="#4C1D95"/>
      <text x="24" y="96" fill="#F8FAFC" font-size="19" font-weight="850">Artifacts</text>
      <text x="24" y="123" fill="#94A3B8" font-size="13">Logs, screenshots, JSON, text</text>
    </g>
  </g>
</svg>
